Coordinates
version=1
nRows=7
nColumns=38
inDegrees=yes

Units are S.I. units (second, meters, Newtons, ...)
Angles are in degrees.

endheader
time	pelvis_tilt	pelvis_list	pelvis_rotation	pelvis_tx	pelvis_ty	pelvis_tz	hip_flexion_r	hip_adduction_r	hip_rotation_r	knee_angle_r	ankle_angle_r	subtalar_angle_r	mtp_angle_r	hip_flexion_l	hip_adduction_l	hip_rotation_l	knee_angle_l	ankle_angle_l	subtalar_angle_l	mtp_angle_l	lumbar_extension	lumbar_bending	lumbar_rotation	arm_flex_r	arm_add_r	arm_rot_r	elbow_flex_r	pro_sup_r	wrist_flex_r	wrist_dev_r	arm_flex_l	arm_add_l	arm_rot_l	elbow_flex_l	pro_sup_l	wrist_flex_l	wrist_dev_l
      6.59000000	     -0.81247929	    -10.20763919	     87.64891181	     -0.23835977	      1.10080341	     -0.59777106	     46.72304261	     -1.40432855	      0.12096223	    -85.18966379	      2.82938513	      0.00000000	      0.00000000	     -5.56485717	      4.91435054	      2.87822582	    -16.24138233	     -0.19384167	      0.00000000	      0.00000000	    -11.36280862	     -1.63785281	    -15.08399071	      0.00000000	      0.00000000	      0.00000000	     90.00000000	     90.00000000	      0.00000000	      0.00000000	      0.00000000	      0.00000000	      0.00000000	     90.00000000	     90.00000000	      0.00000000	      0.00000000
      6.59500000	     -0.52157964	    -10.46282540	     87.27581207	     -0.23818541	      1.10469174	     -0.59890220	     46.92306069	     -0.92404321	     -0.16214499	    -82.17158165	      2.80746542	      0.00000000	      0.00000000	     -6.53240506	      4.53547065	      1.84784272	    -14.95127682	     -3.04083480	      0.00000000	      0.00000000	    -10.89675313	     -1.13052384	    -14.90195511	      0.00000000	      0.00000000	      0.00000000	     90.00000000	     90.00000000	      0.00000000	      0.00000000	      0.00000000	      0.00000000	      0.00000000	     90.00000000	     90.00000000	      0.00000000	      0.00000000
      6.60000000	     -0.26886656	    -10.67100219	     86.91128743	     -0.23798910	      1.10849471	     -0.60003778	     46.99084389	     -0.50984573	     -0.47165979	    -79.06555759	      2.79151096	      0.00000000	      0.00000000	     -7.50324280	      4.21842455	      0.77183004	    -13.71180384	     -5.97152316	      0.00000000	      0.00000000	    -10.49447431	     -0.66459770	    -14.70309171	      0.00000000	      0.00000000	      0.00000000	     90.00000000	     90.00000000	      0.00000000	      0.00000000	      0.00000000	      0.00000000	      0.00000000	     90.00000000	     90.00000000	      0.00000000	      0.00000000
      6.60500000	     -0.05353099	    -10.82164528	     86.56508990	     -0.23778346	      1.11218424	     -0.60119424	     46.91688145	     -0.16610954	     -0.81192081	    -75.87657867	      2.78136741	      0.00000000	      0.00000000	     -8.48313538	      3.96750908	     -0.31300918	    -12.54219463	     -8.93052309	      0.00000000	      0.00000000	    -10.16684100	     -0.24376822	    -14.50008473	      0.00000000	      0.00000000	      0.00000000	     90.00000000	     90.00000000	      0.00000000	      0.00000000	      0.00000000	      0.00000000	      0.00000000	     90.00000000	     90.00000000	      0.00000000	      0.00000000
      6.61000000	      0.12295177	    -10.90612540	     86.24381022	     -0.23759363	      1.11572450	     -0.60238558	     46.69493188	      0.10605884	     -1.18360494	    -72.60902387	      2.77425937	      0.00000000	      0.00000000	     -9.47522286	      3.78574485	     -1.36509266	    -11.46353690	    -11.84924784	      0.00000000	      0.00000000	     -9.92154337	      0.12685385	    -14.30389319	      0.00000000	      0.00000000	      0.00000000	     90.00000000	     90.00000000	      0.00000000	      0.00000000	      0.00000000	      0.00000000	      0.00000000	     90.00000000	     90.00000000	      0.00000000	      0.00000000
      6.61500000	      0.25726845	    -10.91839879	     85.95070817	     -0.23744598	      1.11908056	     -0.60361753	     46.32224597	      0.30880420	     -1.58372749	    -69.26659287	      2.76496190	      0.00000000	      0.00000000	    -10.48058481	      3.67507183	     -2.33942522	    -10.49774180	    -14.64846420	      0.00000000	      0.00000000	     -9.76301217	      0.44142350	    -14.12361640	      0.00000000	      0.00000000	      0.00000000	     90.00000000	     90.00000000	      0.00000000	      0.00000000	      0.00000000	      0.00000000	      0.00000000	     90.00000000	     90.00000000	      0.00000000	      0.00000000
      6.62000000	      0.34521270	    -10.85558973	     85.68602479	     -0.23735778	      1.12222871	     -0.60488645	     45.79962283	      0.44720433	     -2.00575898	    -65.85263895	      2.74622928	      0.00000000	      0.00000000	    -11.49861992	      3.63680429	     -3.18998658	     -9.66652438	    -17.24270500	      0.00000000	      0.00000000	     -9.69253115	      0.69407995	    -13.96648571	      0.00000000	      0.00000000	      0.00000000	     90.00000000	     90.00000000	      0.00000000	      0.00000000	      0.00000000	      0.00000000	      0.00000000	     90.00000000	     90.00000000	      0.00000000	      0.00000000
